HIERARCHY
ROOT Root
{
	OFFSET 0.00000 0.00000 0.00000
	CHANNELS 6 Xposition Yposition Zposition Zrotation Xrotation Yrotation
	JOINT Hip
	{
		OFFSET 0 0 0	
		CHANNELS 3 Zrotation Xrotation Yrotation
		JOINT Tummy
		{
			OFFSET 0 0.04 0	
			CHANNELS 3 Zrotation Xrotation Yrotation
			JOINT ChestBottom
			{
				OFFSET 0 0.194 0	
				CHANNELS 3 Zrotation Xrotation Yrotation
				JOINT ChestTop
				{
					OFFSET 0 0.166 0	
					CHANNELS 3 Zrotation Xrotation Yrotation
					JOINT LeftCollar
					{
						OFFSET 0 0.1 0	
						CHANNELS 3 Zrotation Xrotation Yrotation
						JOINT LeftUpperArm
						{
							OFFSET 0.156 -0.02 0.03	
							CHANNELS 3 Zrotation Xrotation Yrotation
							JOINT LeftForeArm
							{
								OFFSET 0.035 -0.27 -0.01	
								CHANNELS 3 Zrotation Xrotation Yrotation
								JOINT LeftHand
								{
									OFFSET 0.01 -0.27 0.01	
									CHANNELS 3 Zrotation Xrotation Yrotation
									End Site
									{
										OFFSET 0 -0.15 0
									}
								}
							}
						}
					}
					JOINT RightCollar
					{
						OFFSET 0 0.1 0	
						CHANNELS 3 Zrotation Xrotation Yrotation
						JOINT RightUpperArm
						{
							OFFSET -0.156 -0.02 0.03	
							CHANNELS 3 Zrotation Xrotation Yrotation
							JOINT RightForeArm
							{
								OFFSET -0.035 -0.27 -0.01	
								CHANNELS 3 Zrotation Xrotation Yrotation
								JOINT RightHand
								{
									OFFSET -0.01 -0.27 0.01	
									CHANNELS 3 Zrotation Xrotation Yrotation
									End Site
									{
										OFFSET 0 -0.15 0
									}
								}
							}
						}
					}
					JOINT Neck
					{
						OFFSET 0 0.1 0	
						CHANNELS 3 Zrotation Xrotation Yrotation
						JOINT Head
						{
							OFFSET 0 0.127 0.03	
							CHANNELS 3 Zrotation Xrotation Yrotation
							End Site
							{
								OFFSET 0 0.127 0.03
							}
						}
					}
				}
			}
		}
	}
	JOINT LeftHip
	{
		OFFSET 0 0 0	
		CHANNELS 3 Zrotation Xrotation Yrotation
		JOINT LeftThigh
		{
			OFFSET 0.088 -0.06 0	
			CHANNELS 3 Zrotation Xrotation Yrotation
			JOINT LeftLowerLeg
			{
				OFFSET 0 -0.39 0.02	
				CHANNELS 3 Zrotation Xrotation Yrotation
				JOINT LeftFootTop
				{
					OFFSET 0 -0.43 -0.02	
					CHANNELS 3 Zrotation Xrotation Yrotation
					JOINT LeftFootFront
					{
						OFFSET 0 -0.07 0.085	
						CHANNELS 3 Zrotation Xrotation Yrotation
						End Site
						{
							OFFSET 0 -0.005 0.09
						}
					}
				}
				JOINT LeftHeel
				{
					OFFSET 0 -0.43 -0.02	
					CHANNELS 3 Zrotation Xrotation Yrotation
					End Site
					{
						OFFSET 0 -0.075 -0.05
					}
				}
			}
		}
	}
	JOINT RightHip
	{
		OFFSET 0 0 0	
		CHANNELS 3 Zrotation Xrotation Yrotation
		JOINT RightThigh
		{
			OFFSET -0.088 -0.06 0	
			CHANNELS 3 Zrotation Xrotation Yrotation
			JOINT RightLowerLeg
			{
				OFFSET 0 -0.39 0.02	
				CHANNELS 3 Zrotation Xrotation Yrotation
				JOINT RightFootTop
				{
					OFFSET 0 -0.43 -0.02	
					CHANNELS 3 Zrotation Xrotation Yrotation
					JOINT RightFootFront
					{
						OFFSET 0 -0.07 0.085	
						CHANNELS 3 Zrotation Xrotation Yrotation
						End Site
						{
							OFFSET 0 -0.005 0.09
						}
					}
				}
				JOINT RightHeel
				{
					OFFSET 0 -0.43 -0.02	
					CHANNELS 3 Zrotation Xrotation Yrotation
					End Site
					{
						OFFSET 0 -0.075 -0.05
					}
				}
			}
		}
	}
}
MOTION
Frames: 10
Frame Time: 0.008
0 0.95653 0 -0 0 -0 0.011351 -0.72465 -0.15302 -0.17519 -1.4191 0.11012 -0.17519 -1.4191 0.11012 -0.14734 -1.192 0.092786 -0 0 -0 -0.7091 1.5356 1.1927 0.016493 1.3908 2.2649 -0 0 -0 -0 0 -0 3.8023 0.92298 0.11224 -1.7361 3.4888 2.5812 -0 0 -0 0.78411 3.2713 -1.5526 0.78411 3.2713 -1.5526 0.011351 -0.72465 -0.15302 -0.53867 0.40077 -1.5983 -0.26085 0.97551 1.3738 -0 0 -0 -0 0 -0 -0 0 -0 0.011351 -0.72465 -0.15302 0.34792 0.20784 2.0179 -1.0165 1.1385 -1.3473 -0 0 -0 -0 0 -0 -0 0 -0 
0 0.95653 0 -0 0 -0 0.011276 -0.72565 -0.15134 -0.17548 -1.4185 0.11041 -0.17548 -1.4185 0.11041 -0.14758 -1.1915 0.093032 -0 0 -0 -0.7078 1.5357 1.1917 0.014457 1.3904 2.266 -0 0 -0 -0 0 -0 3.8034 0.92365 0.11535 -1.7384 3.4887 2.5791 -0 0 -0 0.78483 3.2719 -1.5523 0.78483 3.2719 -1.5523 0.011276 -0.72565 -0.15134 -0.53936 0.40196 -1.5999 -0.25994 0.97554 1.3747 -0 0 -0 -0 0 -0 -0 0 -0 0.011276 -0.72565 -0.15134 0.34875 0.20869 2.0145 -1.0165 1.1385 -1.3444 -0 0 -0 -0 0 -0 -0 0 -0 
0 0.95653 0 -0 0 -0 0.01118 -0.72687 -0.14927 -0.17587 -1.4179 0.11075 -0.17587 -1.4179 0.11075 -0.14791 -1.191 0.093321 -0 0 -0 -0.70628 1.5359 1.1904 0.01222 1.39 2.2675 -0 0 -0 -0 0 -0 3.8047 0.92448 0.11908 -1.741 3.4885 2.5763 -0 0 -0 0.78576 3.2727 -1.552 0.78576 3.2727 -1.552 0.01118 -0.72687 -0.14927 -0.54019 0.40337 -1.6017 -0.25884 0.97562 1.3758 -0 0 -0 -0 0 -0 -0 0 -0 0.01118 -0.72687 -0.14927 0.34978 0.20975 2.0102 -1.0165 1.1384 -1.3408 -0 0 -0 -0 0 -0 -0 0 -0 
0 0.95653 0 -0 0 -0 0.011069 -0.72833 -0.14675 -0.17639 -1.4171 0.11114 -0.17639 -1.4171 0.11114 -0.14835 -1.1904 0.093645 -0 0 -0 -0.7046 1.5361 1.1887 0.0099116 1.3898 2.2693 -0 0 -0 -0 0 -0 3.8062 0.9255 0.12341 -1.7439 3.488 2.5727 -0 0 -0 0.78691 3.2738 -1.5516 0.78691 3.2738 -1.5516 0.011069 -0.72833 -0.14675 -0.54114 0.40505 -1.6037 -0.25754 0.97571 1.377 -0 0 -0 -0 0 -0 -0 0 -0 0.011069 -0.72833 -0.14675 0.35099 0.211 2.0051 -1.0165 1.1383 -1.3364 -0 0 -0 -0 0 -0 -0 0 -0 
0 0.95653 0 -0 0 -0 0.010966 -0.72997 -0.14384 -0.17706 -1.4164 0.11154 -0.17706 -1.4164 0.11154 -0.14891 -1.1898 0.093987 -0 0 -0 -0.70291 1.5364 1.1867 0.0077567 1.3896 2.2715 -0 0 -0 -0 0 -0 3.8078 0.92673 0.12811 -1.7468 3.4873 2.5682 -0 0 -0 0.78826 3.2753 -1.5513 0.78826 3.2753 -1.5513 0.010966 -0.72997 -0.14384 -0.54216 0.40685 -1.6059 -0.2561 0.9759 1.3781 -0 0 -0 -0 0 -0 -0 0 -0 0.010966 -0.72997 -0.14384 0.35231 0.21242 1.9992 -1.0165 1.1382 -1.3315 -0 0 -0 -0 0 -0 -0 0 -0 
0 0.95653 0 -0 0 -0 0.010898 -0.7317 -0.1406 -0.17788 -1.4158 0.11194 -0.17788 -1.4158 0.11194 -0.1496 -1.1892 0.094325 -0 0 -0 -0.70135 1.5367 1.1844 0.0060847 1.3898 2.274 -0 0 -0 -0 0 -0 3.8094 0.92814 0.13288 -1.7496 3.4862 2.5632 -0 0 -0 0.78978 3.2772 -1.551 0.78978 3.2772 -1.551 0.010898 -0.7317 -0.1406 -0.54314 0.4086 -1.6081 -0.25464 0.97621 1.3791 -0 0 -0 -0 0 -0 -0 0 -0 0.010898 -0.7317 -0.1406 0.3536 0.21395 1.9926 -1.0163 1.1382 -1.3261 -0 0 -0 -0 0 -0 -0 0 -0 
0 0.95653 0 -0 0 -0 0.010882 -0.73336 -0.13715 -0.17884 -1.4153 0.1123 -0.17884 -1.4153 0.1123 -0.15041 -1.1888 0.094629 -0 0 -0 -0.70014 1.5371 1.1821 0.0051531 1.3903 2.2766 -0 0 -0 -0 0 -0 3.8109 0.92973 0.13734 -1.7518 3.4849 2.5577 -0 0 -0 0.79137 3.2797 -1.551 0.79137 3.2797 -1.551 0.010882 -0.73336 -0.13715 -0.54395 0.41012 -1.6102 -0.25326 0.97672 1.3798 -0 0 -0 -0 0 -0 -0 0 -0 0.010882 -0.73336 -0.13715 0.3547 0.21543 1.9856 -1.0159 1.1381 -1.3204 -0 0 -0 -0 0 -0 -0 0 -0 
0 0.95653 0 -0 0 -0 0.010985 -0.73493 -0.13348 -0.17997 -1.4151 0.1126 -0.17997 -1.4151 0.1126 -0.15135 -1.1887 0.09488 -0 0 -0 -0.69932 1.5376 1.18 0.0050979 1.3912 2.2792 -0 0 -0 -0 0 -0 3.8121 0.93152 0.14129 -1.7535 3.4833 2.5522 -0 0 -0 0.79296 3.2828 -1.5513 0.79296 3.2828 -1.5513 0.010985 -0.73493 -0.13348 -0.54454 0.41128 -1.6122 -0.252 0.97746 1.3803 -0 0 -0 -0 0 -0 -0 0 -0 0.010985 -0.73493 -0.13348 0.35536 0.21685 1.9783 -1.015 1.1381 -1.3144 -0 0 -0 -0 0 -0 -0 0 -0 
0 0.95653 0 -0 0 -0 0.011291 -0.73621 -0.1298 -0.18125 -1.4152 0.1128 -0.18125 -1.4152 0.1128 -0.15243 -1.1887 0.095052 -0 0 -0 -0.69895 1.5381 1.1782 0.0061436 1.3926 2.2815 -0 0 -0 -0 0 -0 3.813 0.93343 0.14425 -1.7544 3.4815 2.547 -0 0 -0 0.79444 3.2864 -1.5522 0.79444 3.2864 -1.5522 0.011291 -0.73621 -0.1298 -0.54485 0.41189 -1.6142 -0.25098 0.97848 1.3806 -0 0 -0 -0 0 -0 -0 0 -0 0.011291 -0.73621 -0.1298 0.35521 0.21808 1.9712 -1.0134 1.1381 -1.3087 -0 0 -0 -0 0 -0 -0 0 -0 
0 0.95653 0 -0 0 -0 0.011868 -0.73712 -0.12611 -0.18272 -1.4155 0.1129 -0.18272 -1.4155 0.1129 -0.15367 -1.189 0.09514 -0 0 -0 -0.69893 1.5387 1.1767 0.0082202 1.3942 2.2835 -0 0 -0 -0 0 -0 3.8135 0.93554 0.14611 -1.7544 3.4796 2.5427 -0 0 -0 0.79576 3.2906 -1.5536 0.79576 3.2906 -1.5536 0.011868 -0.73712 -0.12611 -0.54492 0.41189 -1.6162 -0.25015 0.97974 1.3808 -0 0 -0 -0 0 -0 -0 0 -0 0.011868 -0.73712 -0.12611 0.35397 0.21905 1.9645 -1.0107 1.1381 -1.3034 -0 0 -0 -0 0 -0 -0 0 -0 
